<?xml version="1.0" encoding="UTF-8" standalone="no"?>
<!DOCTYPE svg PUBLIC "-//W3C//DTD SVG 1.1//EN" "http://www.w3.org/Graphics/SVG/1.1/DTD/svg11.dtd">
<svg width="100%" height="100%" viewBox="0 0 1087 281" version="1.1" xmlns="http://www.w3.org/2000/svg" xmlns:xlink="http://www.w3.org/1999/xlink" xml:space="preserve" xmlns:serif="http://www.serif.com/" style="fill-rule:evenodd;clip-rule:evenodd;stroke-linejoin:round;stroke-miterlimit:2;">
    <g transform="matrix(1,0,0,1,-734.494,-413.75)">
        <g transform="matrix(18.5359,0,0,18.5359,-10145.9,-13258.4)">
            <path d="M597.951,751.3L597.951,742.874L592.581,742.874L591.502,743.715L592.581,744.557L596.268,744.557L596.268,749.617L589.465,749.617L589.465,740.744L597.878,740.709L597.878,739.061L587.782,739.061L587.782,751.3L597.951,751.3Z" style="fill:rgb(177,61,210);fill-rule:nonzero;"/>
            <path d="M608.172,751.3L609.251,750.458L608.172,749.616L601.178,749.615L601.181,739.017L599.478,739.017L599.478,751.3L608.172,751.3Z" style="fill:rgb(177,61,210);fill-rule:nonzero;"/>
            <path d="M621.971,749.164L621.988,739.032L610.043,739.032L610.043,751.3L618.818,751.3L619.843,750.458L618.818,749.616L611.726,749.616L611.726,740.744L620.321,740.744L620.305,747.487L618.537,747.487L619.434,741.524L617.754,741.524L617.666,742.082L613.213,742.082L612.179,748.841L616.027,748.841L616.872,748.241L616.933,747.822L616.242,747.181L613.889,747.181L614.469,743.761L617.467,743.761L616.739,749.164L621.971,749.164Z" style="fill:rgb(177,61,210);fill-rule:nonzero;"/>
            <path d="M633.595,749.107L633.595,739.061L623.587,739.061L623.587,750.382L624.429,751.3L625.29,750.382L625.29,749.107L633.595,749.107ZM631.946,747.487L625.29,747.487L625.29,740.735L631.946,740.756L631.946,747.487Z" style="fill:rgb(177,61,210);fill-rule:nonzero;"/>
            <path d="M644.792,751.3L644.792,749.616L636.751,749.616L636.751,747.487L643.713,747.487L644.63,746.658L643.713,745.789L636.751,745.789L636.751,740.72L644.792,740.72L644.792,739.061L635.048,739.061L635.048,751.3L644.792,751.3Z" style="fill:rgb(177,61,210);fill-rule:nonzero;"/>
        </g>
    </g>
</svg>
