<?xml version="1.0" encoding="UTF-8" standalone="no"?>
<!DOCTYPE svg PUBLIC "-//W3C//DTD SVG 1.1//EN" "http://www.w3.org/Graphics/SVG/1.1/DTD/svg11.dtd">
<svg width="100%" height="100%" viewBox="0 0 1087 281" version="1.1" xmlns="http://www.w3.org/2000/svg" xmlns:xlink="http://www.w3.org/1999/xlink" xml:space="preserve" xmlns:serif="http://www.serif.com/" style="fill-rule:evenodd;clip-rule:evenodd;stroke-linejoin:round;stroke-miterlimit:2;">
    <g transform="matrix(1,0,0,1,-734.494,-413.75)">
        <g transform="matrix(18.5359,0,0,18.5359,-10145.9,-13258.4)">
            <path d="M597.951,751.3L597.951,742.472L592.581,742.472L591.879,743.115L592.581,743.749L596.572,743.749L596.572,749.994L589.162,749.994L589.162,740.432L597.878,740.397L597.878,739.061L587.782,739.061L587.782,751.3L597.951,751.3Z" style="fill:white;fill-rule:nonzero;"/>
            <path d="M608.172,751.3L608.928,750.657L608.172,749.994L600.855,749.993L600.857,739.017L599.478,739.017L599.478,751.3L608.172,751.3Z" style="fill:white;fill-rule:nonzero;"/>
            <path d="M621.971,749.188L621.988,739.032L610.043,739.032L610.043,751.3L618.818,751.3L619.573,750.652L618.818,749.994L611.348,749.994L611.348,740.367L620.699,740.367L620.682,747.889L618.537,747.889L619.434,741.914L618.131,741.914L618.043,742.472L613.213,742.472L612.179,748.887L616.566,748.887L617.435,748.288L616.728,747.583L613.781,747.583L614.469,743.774L617.844,743.774L617.117,749.188L621.971,749.188Z" style="fill:white;fill-rule:nonzero;"/>
            <path d="M633.595,749.239L633.595,739.061L623.587,739.061L623.587,750.652L624.299,751.3L624.967,750.652L624.967,749.239L633.595,749.239ZM632.216,747.889L624.967,747.889L624.967,740.411L632.216,740.432L632.216,747.889Z" style="fill:white;fill-rule:nonzero;"/>
            <path d="M644.792,751.3L644.792,749.994L636.427,749.994L636.427,747.889L644.09,747.889L644.792,747.233L644.09,746.568L636.427,746.568L636.427,740.397L644.792,740.397L644.792,739.061L635.048,739.061L635.048,751.3L644.792,751.3Z" style="fill:white;fill-rule:nonzero;"/>
        </g>
    </g>
</svg>
